<svg xmlns="http://www.w3.org/2000/svg" data-name="Layer 1" viewBox="0 0 512 640" x="0px" y="0px">
    <title>bell23</title>
    <path d="M237.16,371.71a378,378,0,0,1-79.08-8.55c-11.87-2.54-25.75-6.17-38.66-13.8-7.55-4.46-17.69-11.72-18.52-23.19s8.31-20.31,15.27-25.93c25.17-20.3,39-47.67,42.16-83.68,0.42-4.66.51-9.41,0.61-14.45a187.17,187.17,0,0,1,1.12-20c4.29-33.93,22.32-59.79,52.16-74.8,6.52-3.28,6.82-4.51,6.95-8.7,0.64-21.11,15.32-35.24,36.57-35.24H256c20.93,0.12,35.28,13.94,36.58,35.21,0.35,5.8.9,6.05,3.51,7.28,37.23,17.47,56.73,49.4,56.39,92.34-0.3,37.3,10,67.22,31.43,91.46a81.66,81.66,0,0,0,11.48,10.57c4.07,3.12,16.44,12.6,15.37,26S396,347.22,391.5,349.65c-26.62,14.4-55.48,17.52-83.4,20.54l-5.58.61c-10.93,1.2-21.8.9-32.32,0.61-4.4-.12-8.95-0.25-13.34-0.25Q247.06,371.71,237.16,371.71ZM123.51,324.53c0.69,0.86,2.55,2.72,7.31,5.53,10.14,6,21.84,9,31.95,11.17a349.57,349.57,0,0,0,93.13,7.51l0.64,0c4.8,0,9.62.13,14.28,0.26,10.21,0.28,19.85.55,29.25-.48l5.62-.61c26.95-2.91,52.4-5.67,75.14-18,4.94-2.67,6.78-4.57,7.4-5.37-0.49-.89-2-3-6.47-6.47a104,104,0,0,1-14.64-13.51c-25.28-28.57-37.4-63.4-37.06-106.49,0.27-34.49-14-58-43.49-71.86-13.4-6.29-15.79-16.78-16.37-26.22-0.59-9.6-5.14-14.1-14.33-14.15h-0.16c-9.11,0-13.87,4.54-14.14,13.5-0.5,16.42-10,23.4-19.28,28.05-23.18,11.65-36.63,31-40,57.57a167.73,167.73,0,0,0-.95,17.59c-0.1,5.19-.21,10.56-0.69,16-3.72,41.8-20.69,75.15-50.42,99.14C125.71,321.36,124.08,323.56,123.51,324.53Z"/>
    <path d="M512,332.23c-1.5,37.66-12.62,71.74-37.52,100.68-8.22,9.55-16.39,22.66-30.78,11.18s-4.05-22.47,4.16-32.28c29.83-35.64,36-75.92,23.21-119.66-4.92-16.82-14.61-31.17-26.18-44.27-7.65-8.66-12.88-18.58-2.12-27.8,11.38-9.75,20.46-3,28.73,6.48C498,256.86,510.9,292.25,512,332.23Z"/>
    <path d="M46.52,334.41c-0.63-28.59,8.53-51.51,26.12-71.3,7.17-8.06,16-11.27,24.74-4.68,9.83,7.4,8.51,17.27,1.21,26.34-25.46,31.64-25,63,.43,94.48,6.68,8.26,7.92,17.39-.74,24.92-9.81,8.52-18.42,4.1-25.93-4.32C55.22,380.63,46.15,358.32,46.52,334.41Z"/>
    <path d="M465.07,330c0.36,28.39-8.82,51.33-26.76,70.85-7.17,7.8-15.52,11.25-24.55,3.8-8.79-7.25-8.36-16.49-1.58-24.82,26.18-32.15,26.13-64,.07-96.16-6.84-8.44-7.34-17.81,1.45-24.79s17.53-4.26,24.75,3.78C456.08,282.3,465.69,305.08,465.07,330Z"/>
    <path d="M0,332.23C1.5,369.89,12.62,404,37.52,432.91c8.22,9.55,16.39,22.66,30.78,11.18s4.05-22.47-4.16-32.28c-29.83-35.64-36-75.92-23.21-119.66,4.92-16.82,14.61-31.17,26.18-44.27,7.65-8.66,12.88-18.58,2.12-27.8-11.38-9.75-20.46-3-28.73,6.48C14,256.86,1.1,292.25,0,332.23Z"/>
</svg>